<svg xmlns="http://www.w3.org/2000/svg" width="142.48334" height="23.5" viewBox="0 0 37.698715 6.2177086">
  <path fill="#fff" d="M12.431766 5.4478032h-.541415V.96672508h.541415zm1.653046-3.7553446h-.610532v-.561581h.610532zm-.03455 3.7553446h-.541422V2.2309843h.541417zm3.902218-1.6328898q0 .4031853-.115192.7257335-.112313.3225482-.305267.5414182-.204471.2275051-.44926.3426969-.244788.1123134-.538536.1123134-.273587 0-.478058-.066175-.204471-.063352-.403183-.1727873l-.034554.1497465h-.506858V.96678152h.541415V2.567995q.227511-.1871937.48382-.3052638.256307-.1209203.575972-.1209203.570215 0 .89852.43774.331186.43774.331186 1.2354612zm-.558696.014392q0-.5759729-.19007-.8726016-.190073-.299507-.613414-.299507-.23615 0-.478058.1037064-.24191.1007434-.449261.2620599v1.8431246q.230391.1037064.394543.1439897.167033.040354.377263.040354.44926 0 .702688-.2937503.256309-.2966286.256309-.9273191zm3.409768-1.0079421h-.0288q-.120948-.028784-.236149-.040354-.112313-.014392-.267828-.014392-.250549 0-.483819.1123133-.233267.1094918-.449257.2851155V5.447775h-.541416V2.2309561h.541416v.4751872q.322545-.2591956.567335-.3657522.247668-.1094914.503976-.1094914.141115 0 .204471.00847.06335.00564.190072.025962z"/>
  <path fill="#fff" d="M22.281899 1.53601h-.635373V.95158535h.635373zm-.03597 3.9081529h-.563439V2.0964622h.563445zm3.914151 0h-.563444V3.5380383q0-.2307645-.02698-.431574-.02698-.2038008-.09891-.3176804-.07492-.1258587-.215787-.185825-.140858-.062929-.36564-.062929-.230773 0-.482525.1138655-.251752.1138654-.482525.2907167v2.4995367h-.563441V2.0964481h.563444v.371636q.263741-.2187854.545462-.3416669.281724-.1228957.578431-.1228957.542465 0 .827186.3266824.28472.3266824.28472.941076zM27.850415 1.53601h-.635375V.95158535h.635375zm-.03597 3.9081529h-.56344V2.0964622h.563444zm3.890175 0h-.563445v-.371636q-.28472.224782-.545464.3446723-.260743.1199326-.575432.1199326-.527481 0-.821192-.3206857-.293711-.323677-.293711-.9470586V2.0965187h.563445v1.9061245q0 .254751.02397.4375707.02397.1798284.1019.3086925.08092.1319259.209793.1918075.128879.059966.374632.059966.218784 0 .47653-.1138654.260744-.1138655.485523-.2907167V2.096561h.563445zm5.994095 0h-.563444V3.5380383q0-.2157799-.02098-.4165895-.01797-.2007954-.08092-.3206716-.06893-.1288218-.197804-.1948129-.128878-.065892-.371635-.065892-.236766 0-.473533.1199326-.236767.1168285-.473534.2997046.009.068997.01499.1618385.0059.089879.0059.1798284v2.1428852h-.563425V3.5381371q0-.2217766-.02098-.4195808-.01798-.2007954-.08092-.3206857-.06893-.1288218-.197806-.1918076-.128878-.065892-.371633-.065892-.230773 0-.464543.1138655-.230773.1138654-.461546.2907167v2.4995367h-.563445V2.0965892h.563445v.371636q.263741-.2187854.524484-.3416669.26374-.1228957.560448-.1228957.341664 0 .578431.1438627.239763.1438627.356648.3986137.341664-.2877254.623386-.4135982.281723-.1288218.602408-.1288218.551456 0 .812199.3356703.26374.332679.26374.9320882z" opacity=".3"/>
  <rect width="3.671494" height="6.2177081" fill="#fff" rx="0" ry="0"/>
  <rect width="1.8357471" height="6.2177081" x="4.5148654" fill="#fff" rx="0" ry="0"/>
  <rect width=".9178735" height="6.2177081" x="7.1939797" fill="#fff" rx="0" ry="0"/>
</svg>