<svg xmlns="http://www.w3.org/2000/svg" width="34.683655mm" height="8.0910034mm" viewBox="0 0 34.683655 8.0910034">
  <g fill="#fff" font-weight="400">
    <path d="M231.86112-96.7855h-1.12551v-.541913h1.79248v4.805218h1.13309v.549493h-3.05063v-.549493h1.25057zm3.73793 1.553738h-1.12552v-.545703h1.79249v3.25527h1.13309v.549493h-3.05063v-.549493h1.25057zm.23116-2.141127q.1099 0 .20464.04169.0947.0379.16295.109899.072.072.1099.166743.0417.09095.0417.200849 0 .106109-.0417.200849-.0379.09474-.1099.166742-.0682.072-.16295.113688-.0947.0379-.20464.0379-.1099 0-.20464-.0379-.0947-.04169-.16674-.113688-.0682-.072-.1099-.166742-.0379-.09474-.0379-.200849 0-.109899.0379-.200849.0417-.09474.1099-.166743.072-.072.16674-.109899.0947-.04169.20464-.04169zm5.4622 3.429592q0 .473701-.13264.848872-.12884.371381-.37138.632864-.23874.257693-.5836.397908-.34485.136426-.77687.136426-.33727 0-.6897-.06442-.35244-.06442-.69729-.204639v-5.131127h.65939v1.474156l-.0303.704866q.28422-.38275.60634-.538123.3259-.159164.69728-.159164.32591 0 .57223.136426.24633.136426.41307.38654.16674.246324.25012.598757.0834.348644.0834.780658zm-.67455.03032q0-.299378-.0455-.549492-.0417-.250114-.13642-.428226-.0947-.178111-.24254-.276641-.14779-.102319-.35243-.102319-.12506 0-.2539.04169-.12885.0379-.26906.132636-.13643.09095-.2918.246324-.15159.151584-.32591.378961v1.845537q.19327.07579.39412.121267.20085.04169.38275.04169.22738 0 .43201-.072.20843-.072.36381-.238745.15916-.170532.25011-.447173.0947-.28043.0947-.693497zm1.31637-1.864488h.60255l.019.701077q.33727-.405488.66318-.587389.32969-.181901.66318-.181901.59118 0 .89435.38275.30695.38275.28422 1.136881h-.66698q.0114-.500227-.14779-.723814-.15537-.227376-.45854-.227376-.13264 0-.26906.04927-.13264.04547-.27665.151584-.14021.102319-.29937.265272-.15917.162953-.34107.394119v2.444295h-.66697z" transform="translate(-230.61055 98.539551)"/>
    <path d="M245.96849-98.493466v8.044922h.26562v-8.044922z" overflow="visible" transform="translate(-230.61055 98.539551)"/>
    <path d="M248.31884-95.231766h-1.12551v-.545703h1.79249v3.25527h1.13309v.549492h-3.05063v-.549492h1.25056zm.23117-2.141127q.1099 0 .20464.04169.0947.0379.16295.109899.072.072.1099.166742.0417.09095.0417.200849 0 .106109-.0417.200849-.0379.09474-.1099.166743-.0682.072-.16295.113688-.0947.0379-.20464.0379-.1099 0-.20464-.0379-.0947-.04169-.16674-.113688-.0682-.072-.1099-.166743-.0379-.09474-.0379-.200849 0-.109898.0379-.200849.0417-.09474.1099-.166742.072-.072.16674-.109899.0947-.04169.20464-.04169zm2.21072 1.595424h.58739l.0265.613915q.16674-.197059.32211-.325905.15538-.132637.30317-.212218.15159-.07958.30696-.109899.15537-.03411.32212-.03411.58738 0 .88676.348644.30317.344854.30317 1.042141v2.48219h-.65939v-2.429136q0-.447173-.16675-.659391-.16674-.216008-.49643-.216008-.12127 0-.23875.0379-.11369.03411-.23874.125057-.12506.08716-.27286.238745-.144.151585-.3259.378961v2.523876h-.65939zm5.03397.545703h-1.12551v-.545703h1.79248v3.25527h1.13309v.549492h-3.05063v-.549492h1.25057zm.23117-2.141127q.10989 0 .20463.04169.0947.0379.16296.109899.072.072.1099.166742.0417.09095.0417.200849 0 .106109-.0417.200849-.0379.09474-.1099.166743-.0682.072-.16296.113688-.0947.0379-.20463.0379-.1099 0-.20464-.0379-.0947-.04169-.16675-.113688-.0682-.072-.10989-.166743-.0379-.09474-.0379-.200849 0-.109898.0379-.200849.0417-.09474.10989-.166742.072-.072.16675-.109899.0947-.04169.20464-.04169zm5.26892 5.400186h-.59117l-.0227-.613915q-.17054.197059-.32591.329695-.15158.128847-.30317.208428-.15158.07958-.30696.109899-.15158.03411-.32211.03411-.58739 0-.88677-.344854t-.29938-1.042141v-2.485984h.65939v2.432926q0 .875398.65939.875398.12127 0 .23496-.03411.11748-.0379.24253-.125057.12885-.09095.27285-.242535.1478-.151584.3297-.38275v-2.523872h.65939zm3.39308 0v-2.732304q0-.178112-.0152-.2918-.0114-.113688-.0417-.178111-.0265-.06821-.072-.09474-.0417-.02653-.10611-.02653-.0758 0-.14022.04547-.0644.04547-.14021.147794-.072.10232-.16295.272852-.0872.166742-.20843.413067v2.444294h-.60255v-2.660302q0-.208428-.0152-.337275-.0114-.128846-.0417-.200849-.0265-.072-.072-.09853-.0455-.02653-.1099-.02653-.0682 0-.12884.0379-.0606.0379-.13643.136426-.072.09853-.16295.269062-.091.170532-.21601.435805v2.444294h-.60633v-3.804762h.50402l.0303.723814q.0985-.216007.18948-.367592.0947-.151584.19327-.242534.0985-.09474.20842-.136426.11369-.04547.25012-.04547.30696 0 .46612.200849.15916.200849.15916.621495.091-.197059.17811-.348644.0872-.155373.18569-.257693.10232-.106108.22359-.159163.12127-.05684.28043-.05684.71624 0 .71624 1.102775v2.7702z" opacity=".5" transform="translate(-230.61055 98.539551)"/>
  </g>
</svg>